HIERARCHY
ROOT Hips
{
	OFFSET -3.958830 18.904000 13.208200
	CHANNELS 6 Xposition Yposition Zposition Zrotation Yrotation Xrotation 
	JOINT LHipJoint
	{
		OFFSET 0.000000 0.000000 0.000000
		CHANNELS 3 Zrotation Yrotation Xrotation
		JOINT LeftUpLeg
		{
			OFFSET 1.800000 -1.400000 0.085000
			CHANNELS 3 Zrotation Yrotation Xrotation
			JOINT LeftLeg
			{
				OFFSET 2.215000 -6.000000 0.000000
				CHANNELS 3 Zrotation Yrotation Xrotation
				JOINT LeftFoot
				{
					OFFSET 2.500000 -6.900000 0.000000
					CHANNELS 3 Zrotation Yrotation Xrotation
					JOINT LeftToeBase
					{
						OFFSET 0.200000 -0.500000 1.950000
						CHANNELS 3 Zrotation Yrotation Xrotation
						End Site
						{
							OFFSET 0.000000 0.000000 0.000000
						}
					}
				}
			}
		}
	}
	JOINT RHipJoint
	{
		OFFSET 0.000000 0.000000 0.000000
		CHANNELS 3 Zrotation Yrotation Xrotation
		JOINT RightUpLeg
		{
			OFFSET -1.800000 -1.400000 0.085000
			CHANNELS 3 Zrotation Yrotation Xrotation
			JOINT RightLeg
			{
				OFFSET -2.215000 -6.000000 0.000000
				CHANNELS 3 Zrotation Yrotation Xrotation
				JOINT RightFoot
				{
					OFFSET -2.500000 -6.900000 0.000000
					CHANNELS 3 Zrotation Yrotation Xrotation
					JOINT RightToeBase
					{
						OFFSET -0.200000 -0.500000 1.950000
						CHANNELS 3 Zrotation Yrotation Xrotation
						End Site
						{
							OFFSET 0.000000 0.000000 0.000000
						}
					}
				}
			}
		}
	}
	JOINT LowerBack
	{
		OFFSET 0.000000 0.000000 0.000000
		CHANNELS 3 Zrotation Yrotation Xrotation
		JOINT Spine
		{
			OFFSET -0.087000 1.940000 -0.288900
			CHANNELS 3 Zrotation Yrotation Xrotation
			JOINT Spine1
			{
				OFFSET 0.000000 1.950000 0.060000
				CHANNELS 3 Zrotation Yrotation Xrotation
				JOINT Neck
				{
					OFFSET 0.000000 0.000000 0.000000
					CHANNELS 3 Zrotation Yrotation Xrotation
					JOINT Neck1
					{
						OFFSET 0.000000 1.600000 0.340000
						CHANNELS 3 Zrotation Yrotation Xrotation
						JOINT Head
						{
							OFFSET 0.000000 1.667000 -0.240000
							CHANNELS 3 Zrotation Yrotation Xrotation
							End Site
							{
								OFFSET 0.000000 0.000000 0.000000
							}
						}
					}
				}
				JOINT LeftShoulder
				{
					OFFSET 0.000000 0.000000 0.000000
					CHANNELS 3 Zrotation Yrotation Xrotation
					JOINT LeftArm
					{
						OFFSET 2.700000 1.550000 -0.730000
						CHANNELS 3 Zrotation Yrotation Xrotation
						JOINT LeftForeArm
						{
							OFFSET 5.450000 0.000000 0.000000
							CHANNELS 3 Zrotation Yrotation Xrotation
							JOINT LeftHand
							{
								OFFSET 3.450000 0.000000 0.000000
								CHANNELS 3 Zrotation Yrotation Xrotation
								JOINT LeftHandIndex1
								{
									OFFSET 0.750000 0.000000 0.000000
									CHANNELS 3 Zrotation Yrotation Xrotation
									End Site
									{
										OFFSET 0.000000 0.000000 0.000000
									}
								}
							}
						}
					}
				}
				JOINT RightShoulder
				{
					OFFSET 0.000000 0.000000 0.000000
					CHANNELS 3 Zrotation Yrotation Xrotation
					JOINT RightArm
					{
						OFFSET -2.700000 1.550000 -0.730000
						CHANNELS 3 Zrotation Yrotation Xrotation
						JOINT RightForeArm
						{
							OFFSET -5.450000 0.000000 0.000000
							CHANNELS 3 Zrotation Yrotation Xrotation
							JOINT RightHand
							{
								OFFSET -3.450000 0.000000 0.000000
								CHANNELS 3 Zrotation Yrotation Xrotation
								JOINT RightHandIndex1
								{
									OFFSET -0.750000 0.000000 0.000000
									CHANNELS 3 Zrotation Yrotation Xrotation
									End Site
									{
										OFFSET 0.000000 0.000000 0.000000
									}
								}
							}
						}
					}
				}
			}
		}
	}
}
MOTION
Frames: 10
Frame Time: 0.016667
0.656500 15.571920 -2.029390 0.907348 -9.151586 -4.220221 -15.477208 11.928344 3.974408 -11.287800 -7.380696 -6.482028 -21.689555 20.342438 47.613801 1.674876 11.530792 0.945518 0.479330 0.020690 0.656170 18.392292 -7.613693 4.647163 -11.782986 7.760361 -40.393786 41.346729 -27.190346 41.127953 -2.001891 -10.471521 0.958157 -0.044830 -0.023610 0.321990 -3.438842 -4.412083 -9.186408 22.528998 -10.112214 35.128139 -1.816998 -4.039542 -2.082513 2.478615 -7.293139 -9.111530 -15.736611 3.263832 31.667712 -15.772180 9.138990 -6.334260 -9.296408 9.621110 1.450159 -11.487952 13.717143 2.930700 -149.573613 -34.865404 88.776473 -3.671548 4.077081 0.517210 0.122280 0.075590 0.107430 4.382179 -4.758518 5.029225 37.993466 -11.245425 -7.753736 115.714076 38.366790 42.869419 1.949550 -2.464136 -0.072720 -0.079560 -0.209260 -0.356090 
0.639370 15.552740 -2.052910 0.834655 -10.114206 -5.836235 -15.533196 12.102975 4.000913 -10.870003 -7.165458 -5.432699 -22.294669 20.801622 47.448758 1.752348 11.582958 0.914489 0.504280 0.056140 0.638060 18.315132 -7.572193 4.560914 -12.226119 7.497511 -37.973114 43.512099 -27.172509 39.468270 -2.028757 -10.343677 1.003209 -0.057760 -0.067120 0.317650 -3.249497 -4.815183 -9.205124 21.266742 -10.021916 38.418385 -1.376868 -3.835123 -2.708510 2.748829 -7.862295 -9.666193 -17.270895 4.560601 32.400418 -14.106160 8.837190 -7.266680 -9.307909 9.381811 1.775802 -13.219268 14.498153 1.954264 -147.245194 -35.323883 84.047321 -3.579743 4.105232 0.539800 0.061050 0.109520 0.114820 4.073151 -3.817381 5.460680 38.346065 -11.718457 -8.377168 116.254949 37.812461 42.106649 1.974410 -2.450668 -0.029540 -0.102220 -0.218890 -0.336260 
0.620900 15.584400 -2.059410 0.704409 -10.974496 -6.656765 -15.551345 12.214847 4.001884 -10.408015 -6.994465 -5.094536 -22.242319 20.978044 47.585806 1.829664 11.589617 0.927597 0.492000 0.063000 0.594950 18.276716 -7.592927 4.492563 -12.469040 7.372904 -36.090155 44.804400 -26.713682 37.912479 -2.009087 -10.143744 1.093466 -0.086470 -0.064780 0.297510 -3.167873 -4.985939 -9.193214 20.383479 -9.898038 40.090740 -1.302161 -3.801428 -3.136621 2.925567 -8.294851 -10.233683 -18.397401 5.650752 32.709873 -12.736720 8.476910 -7.375780 -9.243381 9.287880 2.399028 -16.039986 16.252686 0.703163 -143.607057 -36.826024 79.196982 -3.524113 4.079409 0.535410 0.030830 0.120820 0.133000 3.837023 -3.220679 5.724207 39.856223 -11.986879 -9.036899 115.539029 38.222804 41.871341 2.011798 -2.411633 -0.004110 -0.091150 -0.224370 -0.300440 
0.609450 15.680540 -2.059500 0.419017 -12.356402 -6.952377 -15.565495 12.373732 3.982441 -10.131600 -6.624845 -5.150035 -21.430318 20.509388 47.228758 1.817512 11.384239 0.986883 0.467160 0.034590 0.564240 18.236012 -7.647492 4.420589 -12.078099 7.560742 -34.460754 44.559620 -25.634703 36.751737 -1.943371 -9.844210 1.196987 -0.128240 -0.077200 0.285080 -3.082888 -5.148636 -9.166060 19.613939 -9.555018 40.917678 -1.446654 -3.567714 -3.348387 3.501869 -8.657900 -10.770405 -19.511238 6.541863 33.310143 -12.457240 8.420970 -7.287990 -9.574387 9.475640 2.822475 -21.236890 17.512424 -0.947134 -139.557296 -39.954929 76.914929 -3.472960 4.036470 0.548910 0.000420 0.129080 0.133700 3.170582 -2.873843 6.090452 42.366535 -12.213662 -9.976761 114.558022 40.370732 43.690510 2.052097 -2.370949 0.008570 -0.098210 -0.217670 -0.287970 
0.605280 15.828250 -2.044110 -0.621283 -12.713349 -6.359197 -15.509696 12.499953 3.913497 -8.904065 -6.472198 -5.681426 -20.154425 19.612010 46.814215 1.767067 11.083546 1.078106 0.436220 -0.003480 0.523590 18.251814 -7.827704 4.335813 -11.061258 7.462309 -33.300897 43.392490 -24.252450 35.330013 -1.828066 -9.420707 1.334011 -0.170170 -0.073670 0.277290 -3.169483 -5.051775 -9.055903 20.845949 -10.395833 40.244154 -2.880085 -4.006321 -4.525515 4.098484 -9.003400 -10.841840 -20.362122 7.430805 33.574584 -12.234890 8.424160 -6.474470 -10.608466 10.408739 2.649760 -25.827035 18.389841 -2.381941 -134.515364 -44.361708 76.263755 -3.441927 3.997872 0.545120 -0.015330 0.122640 0.143290 3.023348 -3.681358 6.196295 45.204811 -12.538460 -10.449097 112.525440 43.548683 46.486664 2.098404 -2.343736 0.018380 -0.113390 -0.214230 -0.268990 
0.586650 15.990610 -2.026100 -0.709608 -12.826501 -5.010884 -15.446764 12.502763 3.854019 -8.494813 -6.482647 -7.299626 -18.500142 18.630328 46.824865 1.752290 10.777516 1.196048 0.366010 -0.069720 0.425570 18.291029 -7.961902 4.358080 -11.445091 7.341745 -33.775544 42.323560 -23.306782 34.592295 -1.716194 -9.171537 1.426441 -0.230910 -0.007490 0.273830 -3.305186 -4.798625 -8.990281 20.817750 -10.634508 38.784046 -3.939106 -4.509305 -6.945667 4.027112 -9.185653 -10.523495 -20.453716 8.640269 33.019248 -10.630050 8.452120 -4.370170 -10.744176 12.762421 2.659448 -30.180728 20.410241 -3.463981 -129.817107 -49.057146 77.166161 -3.444891 3.988453 0.498970 0.002320 0.084070 0.169040 3.298305 -5.983511 5.562701 48.044433 -12.180912 -9.935716 108.162214 46.767681 48.195844 2.160373 -2.311013 0.027660 -0.121060 -0.194670 -0.215860 
0.568980 16.144950 -1.985120 -1.059952 -13.145696 -2.303569 -15.357014 12.361074 3.775095 -7.799718 -6.707622 -10.207189 -17.065781 17.886500 47.107041 1.687689 10.554567 1.290024 0.309180 -0.127640 0.343640 18.377924 -8.060371 4.474547 -12.089924 7.535751 -35.797353 41.360370 -22.861614 34.567210 -1.612300 -9.070294 1.500516 -0.253020 0.090190 0.231300 -3.561920 -4.308703 -8.924529 21.744947 -10.327545 34.499469 -4.814567 -4.618719 -8.623556 3.431813 -9.332534 -9.473919 -20.253629 10.024284 32.422657 -8.340510 8.445450 -1.736280 -11.055463 15.951203 1.953853 -34.732748 20.741277 -4.250530 -120.891884 -54.627707 74.791208 -3.463526 3.930871 0.444840 0.047310 0.002950 0.197680 4.510499 -9.270391 4.454002 49.374285 -11.954666 -8.841637 102.125789 49.460328 47.938383 2.192889 -2.255386 -0.006820 -0.079770 -0.174270 -0.184490 
0.536800 16.303320 -1.955490 -1.302535 -13.484495 0.285722 -15.333964 12.325716 3.712548 -6.756283 -6.917741 -13.268526 -15.486784 17.181761 47.517670 1.629541 10.336173 1.355679 0.241440 -0.201170 0.273580 18.401151 -8.038063 4.609744 -12.960306 7.750361 -37.884509 40.493355 -22.631223 34.846874 -1.538648 -9.027769 1.525266 -0.299310 0.139290 0.212070 -3.624521 -4.187187 -8.937223 21.200856 -9.108266 30.492011 -4.615087 -3.973855 -9.222879 3.448972 -9.243647 -9.131693 -19.864386 10.404840 32.266443 -7.153330 8.401320 0.647970 -10.216306 18.578998 1.493436 -42.212062 20.175827 -5.976355 -107.415578 -61.016093 68.223348 -3.459177 3.834450 0.413240 0.067170 -0.042460 0.202180 3.538390 -11.710491 4.377444 53.441058 -12.856551 -9.513325 95.383913 53.831682 47.447667 2.243567 -2.181744 -0.021560 -0.082870 -0.150060 -0.162480 
0.489320 16.453660 -1.934890 -1.008515 -14.413103 3.223355 -15.329053 12.198157 3.691825 -5.868929 -7.124746 -17.083155 -14.136989 16.794860 48.088561 1.633087 10.198712 1.409366 0.175550 -0.280860 0.194670 18.421532 -7.987365 4.799789 -14.363814 8.157895 -40.693715 39.043226 -22.239970 35.598440 -1.448378 -9.040382 1.539518 -0.358130 0.203640 0.224320 -3.661431 -3.933696 -9.013639 19.131568 -6.978512 26.163245 -3.891652 -2.835178 -9.592464 3.384222 -8.657732 -8.724480 -17.942233 10.136165 31.136602 -5.948050 8.512390 4.468010 -9.067593 21.175203 1.270853 -49.197482 20.595926 -8.026991 -89.909800 -66.682406 57.779535 -3.468991 3.835332 0.342960 0.118240 -0.102370 0.227290 2.454265 -14.245486 4.264733 57.603298 -14.225277 -10.705222 85.596062 57.421622 43.619062 2.276521 -2.170381 -0.012240 -0.131670 -0.143440 -0.127480 
0.444160 16.606990 -1.903970 -1.083354 -14.690282 5.331477 -15.307484 12.139443 3.647939 -4.618957 -7.217562 -20.075612 -11.803376 16.022262 49.132232 1.585035 10.077278 1.442486 0.063830 -0.415920 0.084590 18.444537 -8.052305 4.871612 -15.496505 8.133709 -41.854108 37.422595 -21.738963 35.941318 -1.322519 -8.978668 1.567733 -0.435190 0.278170 0.221870 -3.716274 -3.663076 -9.004748 17.532946 -5.430601 22.196901 -3.251898 -2.086377 -9.633371 3.189450 -8.233860 -8.498086 -16.720402 9.891373 30.443125 -4.759880 8.130030 8.439840 -7.721849 23.048369 1.168358 -55.316307 20.742476 -11.089420 -66.776138 -67.339137 41.171374 -3.385704 3.957638 0.292090 0.169080 -0.182390 0.219850 1.443426 -16.174825 4.224106 62.476792 -15.422716 -13.095434 71.879506 61.205397 37.475885 2.254257 -2.150650 -0.031690 -0.165200 -0.087430 -0.106690 
